<?xml version="1.0" encoding="UTF-8"?>
<svg xmlns="http://www.w3.org/2000/svg" xmlns:xlink="http://www.w3.org/1999/xlink" width="14pt" height="14pt" viewBox="0 0 14 14" version="1.1">
<g id="surface1">
<path style=" stroke:none;fill-rule:nonzero;fill:rgb(0%,0%,0%);fill-opacity:1;" d="M 12.5 1.5 L 11 1.5 L 11 0.5 C 11 0.222656 10.777344 0 10.5 0 C 10.222656 0 10 0.222656 10 0.5 L 10 1.5 L 4 1.5 L 4 0.5 C 4 0.222656 3.777344 0 3.5 0 C 3.222656 0 3 0.222656 3 0.5 L 3 1.5 L 1.5 1.5 C 0.671875 1.5 0 2.171875 0 3 L 0 12.5 C 0 13.328125 0.671875 14 1.5 14 L 12.5 14 C 13.328125 14 14 13.328125 14 12.5 L 14 3 C 14 2.171875 13.328125 1.5 12.5 1.5 Z M 13 12.5 C 13 12.777344 12.777344 13 12.5 13 L 1.5 13 C 1.222656 13 1 12.777344 1 12.5 L 1 6 L 13 6 Z M 13 5 L 1 5 L 1 3 C 1 2.722656 1.222656 2.5 1.5 2.5 L 3 2.5 L 3 3.5 C 3 3.777344 3.222656 4 3.5 4 C 3.777344 4 4 3.777344 4 3.5 L 4 2.5 L 10 2.5 L 10 3.5 C 10 3.777344 10.222656 4 10.5 4 C 10.777344 4 11 3.777344 11 3.5 L 11 2.5 L 12.5 2.5 C 12.777344 2.5 13 2.722656 13 3 Z M 13 5 "/>
<path style=" stroke:none;fill-rule:nonzero;fill:rgb(0%,0%,0%);fill-opacity:1;" d="M 4 7 L 3 7 C 2.722656 7 2.5 7.222656 2.5 7.5 C 2.5 7.777344 2.722656 8 3 8 L 4 8 C 4.277344 8 4.5 7.777344 4.5 7.5 C 4.5 7.222656 4.277344 7 4 7 Z M 4 7 "/>
<path style=" stroke:none;fill-rule:nonzero;fill:rgb(0%,0%,0%);fill-opacity:1;" d="M 7.5 7 L 6.5 7 C 6.222656 7 6 7.222656 6 7.5 C 6 7.777344 6.222656 8 6.5 8 L 7.5 8 C 7.777344 8 8 7.777344 8 7.5 C 8 7.222656 7.777344 7 7.5 7 Z M 7.5 7 "/>
<path style=" stroke:none;fill-rule:nonzero;fill:rgb(0%,0%,0%);fill-opacity:1;" d="M 11 7 L 10 7 C 9.722656 7 9.5 7.222656 9.5 7.5 C 9.5 7.777344 9.722656 8 10 8 L 11 8 C 11.277344 8 11.5 7.777344 11.5 7.5 C 11.5 7.222656 11.277344 7 11 7 Z M 11 7 "/>
<path style=" stroke:none;fill-rule:nonzero;fill:rgb(0%,0%,0%);fill-opacity:1;" d="M 4 9 L 3 9 C 2.722656 9 2.5 9.222656 2.5 9.5 C 2.5 9.777344 2.722656 10 3 10 L 4 10 C 4.277344 10 4.5 9.777344 4.5 9.5 C 4.5 9.222656 4.277344 9 4 9 Z M 4 9 "/>
<path style=" stroke:none;fill-rule:nonzero;fill:rgb(0%,0%,0%);fill-opacity:1;" d="M 7.5 9 L 6.5 9 C 6.222656 9 6 9.222656 6 9.5 C 6 9.777344 6.222656 10 6.5 10 L 7.5 10 C 7.777344 10 8 9.777344 8 9.5 C 8 9.222656 7.777344 9 7.5 9 Z M 7.5 9 "/>
<path style=" stroke:none;fill-rule:nonzero;fill:rgb(0%,0%,0%);fill-opacity:1;" d="M 11 9 L 10 9 C 9.722656 9 9.5 9.222656 9.5 9.5 C 9.5 9.777344 9.722656 10 10 10 L 11 10 C 11.277344 10 11.5 9.777344 11.5 9.5 C 11.5 9.222656 11.277344 9 11 9 Z M 11 9 "/>
<path style=" stroke:none;fill-rule:nonzero;fill:rgb(0%,0%,0%);fill-opacity:1;" d="M 4 11 L 3 11 C 2.722656 11 2.5 11.222656 2.5 11.5 C 2.5 11.777344 2.722656 12 3 12 L 4 12 C 4.277344 12 4.5 11.777344 4.5 11.5 C 4.5 11.222656 4.277344 11 4 11 Z M 4 11 "/>
<path style=" stroke:none;fill-rule:nonzero;fill:rgb(0%,0%,0%);fill-opacity:1;" d="M 7.5 11 L 6.5 11 C 6.222656 11 6 11.222656 6 11.5 C 6 11.777344 6.222656 12 6.5 12 L 7.5 12 C 7.777344 12 8 11.777344 8 11.5 C 8 11.222656 7.777344 11 7.5 11 Z M 7.5 11 "/>
<path style=" stroke:none;fill-rule:nonzero;fill:rgb(0%,0%,0%);fill-opacity:1;" d="M 11 11 L 10 11 C 9.722656 11 9.5 11.222656 9.5 11.5 C 9.5 11.777344 9.722656 12 10 12 L 11 12 C 11.277344 12 11.5 11.777344 11.5 11.5 C 11.5 11.222656 11.277344 11 11 11 Z M 11 11 "/>
</g>
</svg>
