<?xml version="1.0" encoding="UTF-8"?>
<svg xmlns="http://www.w3.org/2000/svg" xmlns:xlink="http://www.w3.org/1999/xlink" width="14pt" height="14pt" viewBox="0 0 14 14" version="1.1">
<g id="surface1">
<path style=" stroke:none;fill-rule:nonzero;fill:rgb(0%,0%,0%);fill-opacity:1;" d="M 6.898438 6.742188 C 7.828125 6.742188 8.628906 6.410156 9.285156 5.757812 C 9.941406 5.101562 10.273438 4.296875 10.273438 3.371094 C 10.273438 2.445312 9.941406 1.644531 9.285156 0.988281 C 8.628906 0.332031 7.828125 0 6.898438 0 C 5.972656 0 5.171875 0.332031 4.515625 0.988281 C 3.859375 1.644531 3.527344 2.445312 3.527344 3.371094 C 3.527344 4.296875 3.859375 5.101562 4.515625 5.757812 C 5.171875 6.410156 5.972656 6.742188 6.898438 6.742188 Z M 5.097656 1.566406 C 5.597656 1.066406 6.1875 0.820312 6.898438 0.820312 C 7.609375 0.820312 8.203125 1.066406 8.703125 1.566406 C 9.207031 2.070312 9.453125 2.660156 9.453125 3.371094 C 9.453125 4.082031 9.207031 4.671875 8.703125 5.175781 C 8.203125 5.679688 7.609375 5.921875 6.898438 5.921875 C 6.191406 5.921875 5.597656 5.679688 5.097656 5.175781 C 4.59375 4.671875 4.347656 4.082031 4.347656 3.371094 C 4.347656 2.660156 4.59375 2.070312 5.097656 1.566406 Z M 5.097656 1.566406 "/>
<path style=" stroke:none;fill-rule:nonzero;fill:rgb(0%,0%,0%);fill-opacity:1;" d="M 12.800781 10.765625 C 12.78125 10.492188 12.742188 10.195312 12.6875 9.878906 C 12.628906 9.5625 12.558594 9.265625 12.46875 8.992188 C 12.378906 8.707031 12.257812 8.429688 12.105469 8.160156 C 11.945312 7.882812 11.761719 7.640625 11.550781 7.441406 C 11.335938 7.234375 11.070312 7.066406 10.761719 6.945312 C 10.453125 6.824219 10.113281 6.761719 9.75 6.761719 C 9.605469 6.761719 9.46875 6.820312 9.203125 6.996094 C 9.035156 7.101562 8.84375 7.226562 8.628906 7.363281 C 8.445312 7.480469 8.199219 7.589844 7.890625 7.6875 C 7.59375 7.785156 7.289062 7.835938 6.988281 7.835938 C 6.6875 7.835938 6.382812 7.785156 6.085938 7.6875 C 5.777344 7.589844 5.53125 7.480469 5.347656 7.363281 C 5.132812 7.226562 4.941406 7.105469 4.773438 6.996094 C 4.507812 6.820312 4.371094 6.761719 4.226562 6.761719 C 3.863281 6.761719 3.523438 6.824219 3.214844 6.945312 C 2.910156 7.066406 2.640625 7.234375 2.425781 7.445312 C 2.214844 7.640625 2.03125 7.882812 1.871094 8.160156 C 1.722656 8.429688 1.597656 8.707031 1.507812 8.992188 C 1.417969 9.265625 1.347656 9.5625 1.289062 9.878906 C 1.234375 10.195312 1.195312 10.492188 1.175781 10.765625 C 1.15625 11.03125 1.148438 11.3125 1.148438 11.59375 C 1.148438 12.324219 1.378906 12.914062 1.839844 13.351562 C 2.292969 13.78125 2.890625 14 3.617188 14 L 10.359375 14 C 11.085938 14 11.6875 13.78125 12.136719 13.351562 C 12.597656 12.914062 12.828125 12.324219 12.828125 11.59375 C 12.828125 11.308594 12.820312 11.03125 12.800781 10.765625 Z M 11.574219 12.757812 C 11.273438 13.042969 10.875 13.179688 10.359375 13.179688 L 3.617188 13.179688 C 3.101562 13.179688 2.703125 13.042969 2.40625 12.757812 C 2.113281 12.476562 1.96875 12.097656 1.96875 11.59375 C 1.96875 11.328125 1.976562 11.070312 1.996094 10.824219 C 2.011719 10.578125 2.046875 10.308594 2.097656 10.027344 C 2.148438 9.746094 2.210938 9.480469 2.289062 9.242188 C 2.363281 9.011719 2.460938 8.785156 2.585938 8.566406 C 2.703125 8.359375 2.839844 8.179688 2.992188 8.035156 C 3.132812 7.902344 3.308594 7.792969 3.519531 7.707031 C 3.710938 7.632812 3.929688 7.589844 4.164062 7.582031 C 4.191406 7.597656 4.246094 7.628906 4.328125 7.683594 C 4.496094 7.792969 4.691406 7.917969 4.90625 8.054688 C 5.148438 8.210938 5.460938 8.347656 5.832031 8.46875 C 6.214844 8.59375 6.601562 8.65625 6.988281 8.65625 C 7.375 8.65625 7.761719 8.59375 8.144531 8.46875 C 8.515625 8.347656 8.828125 8.210938 9.070312 8.054688 C 9.292969 7.914062 9.480469 7.792969 9.648438 7.683594 C 9.730469 7.628906 9.785156 7.597656 9.8125 7.582031 C 10.046875 7.589844 10.265625 7.632812 10.457031 7.707031 C 10.667969 7.792969 10.84375 7.902344 10.984375 8.035156 C 11.136719 8.179688 11.273438 8.359375 11.390625 8.566406 C 11.515625 8.785156 11.613281 9.011719 11.6875 9.242188 C 11.765625 9.480469 11.828125 9.746094 11.878906 10.027344 C 11.929688 10.3125 11.964844 10.578125 11.980469 10.824219 C 12 11.070312 12.007812 11.328125 12.007812 11.59375 C 12.007812 12.097656 11.867188 12.476562 11.574219 12.757812 Z M 11.574219 12.757812 "/>
</g>
</svg>
